<svg xmlns="http://www.w3.org/2000/svg" xmlns:xlink="http://www.w3.org/1999/xlink" id="Logos" viewBox="0 0 2264.9 1309.9"><defs><style>      .st0 {        fill: url(#radial-gradient);      }      .st1 {        fill: #fff;      }      .st2 {        fill: #02aef0;      }      .st3 {        fill: url(#radial-gradient1);      }      .st4 {        fill: url(#radial-gradient2);      }    </style><radialGradient id="radial-gradient" cx="639.9" cy="667.9" fx="639.9" fy="667.9" r="348.6" gradientTransform="translate(0 1307.9) scale(1 -1)" gradientUnits="userSpaceOnUse"><stop offset="0" stop-color="#6fa6d7"></stop><stop offset="1" stop-color="#184c9c"></stop></radialGradient><radialGradient id="radial-gradient1" cx="1021.6" cy="667.9" fx="1021.6" fy="667.9" r="297.7" gradientTransform="translate(0 1307.9) scale(1 -1)" gradientUnits="userSpaceOnUse"><stop offset="0" stop-color="#6fa6d7"></stop><stop offset="1" stop-color="#184c9c"></stop></radialGradient><radialGradient id="radial-gradient2" cx="1391" cy="667.9" fx="1391" fy="667.9" r="260.7" gradientTransform="translate(0 1307.9) scale(1 -1)" gradientUnits="userSpaceOnUse"><stop offset="0" stop-color="#6fa6d7"></stop><stop offset="1" stop-color="#184c9c"></stop></radialGradient></defs><g><g><circle class="st2" cx="639.9" cy="639.9" r="371.3"></circle><circle class="st0" cx="639.9" cy="639.9" r="348.6"></circle></g><g><circle class="st2" cx="1021.6" cy="639.9" r="317.1"></circle><circle class="st3" cx="1021.6" cy="639.9" r="297.7"></circle></g><g><circle class="st2" cx="1391" cy="639.9" r="277.6"></circle><circle class="st4" cx="1391" cy="639.9" r="260.7"></circle></g></g><g><path class="st1" d="M411.9,707v-60h3.4c4,14.7,8.9,26.4,14.8,35.2,10.9,16,23.5,24,38.1,24s16.6-2.7,23.1-8.1c7-5.9,10.6-14.3,10.6-25.2s-2.5-16.7-7.6-23.3c-2.8-3.5-6.4-6.8-10.7-9.8-4.3-3-11.5-7.1-21.7-12.5-17.8-9.5-29.6-17.4-35.5-23.8-8.5-9-12.7-19.5-12.7-31.4s4.2-23.7,12.7-32.9c9.8-10.5,22.7-15.7,38.8-15.7s13.9,1.3,20.1,3.8l7.2,3.2c2.3.8,4.2,1.3,5.9,1.3,2.7,0,5.2-2.1,7.6-6.4h4.2l2.3,48.1h-4.5c-1.5-6.8-3.2-12.2-5-16.3-1.8-4.1-4.3-8.1-7.5-11.9-4.4-5.4-9.5-9.6-15.2-12.6s-11.5-4.6-17.1-4.6-14.6,2.9-20.2,8.6c-5.6,5.7-8.4,12.8-8.4,21.1s2.5,13.2,7.5,18.8,12.7,10.7,23.2,15.4l22.4,10.2c13.4,6.1,23.4,13.7,30,22.7,6.6,9,9.9,19.7,9.9,32s-4.8,27.1-14.4,36.9c-11,11.3-25.2,17-42.4,17s-18.8-1.8-28.4-5.5c-6.2-2.4-10-3.8-11.2-4.1-1.3-.3-2.9-.5-4.9-.5-5,0-8.7,2.1-11.2,6.4h-3.4,0Z"></path><path class="st1" d="M592.5,729.6l-3.9,1.1c-2.5-4.1-5-6.9-7.4-8.5-2.5-1.6-5.5-2.4-9.2-2.4-6.1,0-11.1,2.3-15,7-3.9,4.7-5.8,10.7-5.8,18.1,0,11.8,5.9,21.5,17.7,29,11.8,7.6,26.8,11.3,45.2,11.3s35.2-4.2,47.3-12.5c12-8.4,18-19.2,18-32.6s-4-19-12-24.8c-8-5.8-19.4-8.6-34.3-8.6h-34.7c-14.3,0-25.8-3.4-34.5-10.1-9-7-13.5-15.4-13.5-25.2s4.8-18.5,14.4-24.5c5-2.9,14-6.1,27.1-9.4-12.7-5.8-22.5-13.5-29.5-23-7-9.5-10.5-20-10.5-31.5s5.5-27.7,16.4-39.2c6.4-6.8,14-12.1,22.7-15.9,8.7-3.8,17.7-5.7,26.9-5.7,14,0,28.2,5,42.8,14.8,6.8-5.4,13-9.2,18.5-11.5,5.5-2.2,11.4-3.4,17.8-3.4s12.9,1.5,17.3,4.6c5.2,3.8,7.9,8.4,7.9,14s-1,6.2-3.1,8.4c-2.1,2.3-4.6,3.4-7.7,3.4-4.7,0-9-2.5-12.8-7.4l-5-6.5c-2.8-3.5-6.7-5.2-11.8-5.2s-11,2.7-17,8.1c11.9,14.4,17.8,29.2,17.8,44.5s-8.5,34.1-25.4,45.2c-8.5,5.5-17.6,9.2-27.4,11.1-2.9.4-12.2,1.2-27.8,2.2-21.4,1.3-32.1,7.3-32.1,17.9s9.1,14,27.3,14h36.1c12.7,0,23.4,1.1,32.1,3.4,8.7,2.3,16.4,5.8,23,10.6,12.8,9.5,19.2,22.8,19.2,39.9s-7.4,33.7-22.3,44.3c-15.3,10.9-37.7,16.4-67.3,16.4s-54.3-6.4-67.5-19.2c-8.5-8.3-12.7-18.6-12.7-31s3.1-18,9.4-24.8c6.2-6.8,13.9-10.2,22.9-10.2s11.9,2,16,5.9c4.2,3.9,6.2,9.1,6.2,15.5v2.4h0ZM583.1,584.5c0,15.7,3.3,28.5,9.9,38.3,6.6,9.9,15,14.8,25.3,14.8s18.6-4.9,24.4-14.7c5.8-9.8,8.7-23.4,8.7-40.8s-3.8-32.4-11.3-43.1c-5.5-8-12.6-12-21.3-12s-18.9,5.2-25.2,15.7c-3.2,5.2-5.7,11.6-7.6,19.2s-2.8,15.1-2.8,22.7Z"></path><path class="st1" d="M876.2,661.9l4.1,1.4c-4.8,14.5-12.1,24.9-21.9,31.3-9.8,6.4-23.3,9.6-40.5,9.6-27.6,0-49.2-8.2-64.9-24.6-15.3-16.1-22.9-36.4-22.9-61s2.1-23.9,6.3-35.6c4.2-11.7,10-21.8,17.4-30.1,8.3-9.5,18.5-16.8,30.6-21.9,12.1-5,25.3-7.6,39.6-7.6s35.3,4.4,46.5,13.3c6.8,5.5,10.2,11.5,10.2,18s-1.4,8-4.3,11c-2.9,2.9-6.3,4.4-10.4,4.4-8.9,0-15.4-6.5-19.7-19.4-1.9-6-3.4-10.1-4.6-12.3-1.2-2.2-2.8-4.1-5-5.7-4.2-3.1-9.4-4.7-15.5-4.7s-15.5,2.2-22.2,6.8c-6,4-11.1,8.9-15.2,14.8-4.2,5.9-7.8,13.4-10.9,22.4-4.8,13.8-7.1,27.3-7.1,40.5s2.2,24,6.5,35.6c4.3,11.6,10.3,21.3,17.8,29.1,11.7,12.3,25.5,18.4,41.3,18.4s23.9-4.2,32.5-12.5c4.3-4.4,8.5-11.5,12.5-21.3h0Z"></path></g><g><path class="st1" d="M1020.6,682.3l.2-30.2h1.7c2.1,7.8,4.5,13.8,7.3,18.2,5.3,8.2,12,12.2,20,12.2s10.2-1.9,13.9-5.6,5.5-8.5,5.5-14.2-.4-5-1.2-7.6c-.8-2.6-1.9-4.8-3.2-6.7-1.4-1.9-3.4-3.7-6-5.5-2.6-1.8-6.5-4-11.7-6.7-4.6-2.3-8.2-4.3-10.6-5.9s-4.4-3.2-6-4.9c-4.2-4.6-6.3-10.2-6.3-16.7s.8-7.9,2.4-11.7,3.9-7,6.8-9.7c5.2-4.8,11.3-7.2,18.3-7.2s4.4.2,6.4.7,4.6,1.4,7.8,2.7c2.4,1,4.1,1.6,5,1.9.9.3,1.7.4,2.3.4,1.7,0,2.8-1.2,3.4-3.7h1.7l.5,29h-1.7c-1.3-4.6-2.4-8.2-3.4-10.6-.9-2.5-2.1-4.7-3.4-6.8-2.4-3.8-5-6.6-7.9-8.4s-6.2-2.7-9.9-2.7c-5.4,0-9.8,1.8-12.9,5.6-1.3,1.5-2.3,3.3-3.1,5.3s-1.1,4.1-1.1,6.2c0,8.2,5.2,14.7,15.7,19.7l10.3,5c7.9,3.8,13.7,7.9,17.2,12.4,4,5.1,6,11,6,17.7s-.9,8.8-2.7,12.8c-2.5,5.7-6.3,10.1-11.4,13.2-5.1,3.1-11,4.6-17.9,4.6s-12.3-1.2-18.1-3.7c-3-1.3-4.8-2.1-5.4-2.3-.6-.2-1.2-.3-2-.3-2.3,0-4,1.2-4.8,3.5h-1.7,0Z"></path><path class="st1" d="M1108.3,642.9c-.2,2.4-.3,4.1-.3,5.2,0,4.2.6,8.4,1.9,12.4s2.9,7.4,5.1,10.1c2.2,2.7,4.9,4.9,8.1,6.4s6.6,2.3,10.2,2.3,5.1-.4,7.5-1.3c2.3-.9,4.3-2.1,5.9-3.7,1.8-1.7,3.2-4.4,4.5-8.2l1.5.5c-1.3,5.7-4,10-8.2,12.9s-9.7,4.3-16.6,4.3-11.1-1-15.4-2.8c-4.3-1.9-7.9-4.8-10.9-8.8-4.1-5.5-6.2-12.3-6.2-20.3s3.9-19.6,11.8-25.8c5.7-4.5,12.2-6.8,19.5-6.8s7.5.7,10.8,2.1c3.3,1.4,6.1,3.4,8.4,6,3.6,4.1,5.3,9.2,5.3,15.3h-42.9ZM1140.2,640c-.3-4.9-1.2-8.6-2.7-11.3-1.3-2.4-3.1-4.3-5.2-5.7-2.2-1.4-4.5-2.1-7-2.1-4.2,0-7.8,1.8-10.9,5.4s-5,8.1-5.6,13.6h31.4Z"></path><path class="st1" d="M1214.9,668.8l1.5.5c-1.7,5.2-4.3,8.9-7.8,11.2-3.5,2.3-8.3,3.4-14.5,3.4-9.8,0-17.6-2.9-23.2-8.8-5.5-5.8-8.2-13-8.2-21.8s.8-8.5,2.3-12.7c1.5-4.2,3.6-7.8,6.2-10.8,3-3.4,6.6-6,10.9-7.8s9-2.7,14.1-2.7,12.6,1.6,16.6,4.8c2.4,2,3.7,4.1,3.7,6.4s-.5,2.9-1.5,3.9c-1,1-2.3,1.6-3.7,1.6-3.2,0-5.5-2.3-7-6.9-.7-2.1-1.2-3.6-1.6-4.4s-1-1.5-1.8-2c-1.5-1.1-3.3-1.7-5.5-1.7s-5.5.8-7.9,2.4c-2.1,1.4-3.9,3.2-5.4,5.3s-2.8,4.8-3.9,8c-1.7,4.9-2.6,9.8-2.6,14.5s.8,8.6,2.3,12.7c1.6,4.1,3.7,7.6,6.3,10.4,4.2,4.4,9.1,6.6,14.7,6.6s8.5-1.5,11.6-4.5c1.6-1.6,3-4.1,4.4-7.6h0Z"></path><path class="st1" d="M1275.2,684c-.6-3-.9-6-.9-9.1-6.1,6.1-13.3,9.1-21.6,9.1s-11-1.5-14.7-4.5c-3.6-2.9-5.4-7.1-5.4-12.4v-31c0-3.3-.3-5.7-.6-7.2-.4-1.5-1.1-2.8-2.2-3.9-1.4-1.3-3.9-2.3-7.6-2.9v-1.6h21.5v37.1c0,5.2.2,9.1.6,11.6.4,2.5,1,4.6,2,6.2,1.1,1.7,2.6,3,4.6,3.9,2,1,4.2,1.4,6.7,1.4s5.3-.5,7.7-1.6c2.4-1.1,4.2-2.5,5.6-4.4,1.4-1.9,2.3-4.1,2.8-6.6.5-2.5.7-6.6.7-12.3v-19.7c0-3.3-.2-5.7-.6-7.2s-1.1-2.8-2.2-3.9c-1.4-1.3-3.9-2.3-7.6-2.9v-1.6h21.5v39.6c0,5,.1,8.5.4,10.5.3,2,.8,3.7,1.6,4.9.9,1.4,1.9,2.3,3.1,3,1.2.6,2.8,1,5,1.1v1.5l-20.1,2.7h0Z"></path><path class="st1" d="M1320.1,630.7c1.8-3.1,3.7-5.4,5.9-6.9,4-2.9,8.7-4.3,13.8-4.3s5.6.7,7.2,2.1c1.5,1.3,2.3,2.8,2.3,4.7s-.4,2.5-1.3,3.4-2.1,1.3-3.5,1.3-3.1-.7-4.3-2l-2.3-2.5c-1.8-1.9-3.9-2.8-6.4-2.8s-5.9,2.1-7.8,6.4c-1.8,4.3-2.8,10.2-2.8,17.9v19.2c0,3.3.3,5.7.6,7.3s1.1,2.8,2.3,3.8c1.4,1.3,3.9,2.3,7.5,3v1.5h-32.3v-1.5c2.9-.4,5-.9,6.3-1.6,1.3-.7,2.3-1.9,3.1-3.6.5-1.1.9-2.8,1.1-5s.3-5.5.3-9.8v-18c0-5-.1-8.5-.4-10.5-.2-2-.8-3.7-1.6-4.9-.8-1.4-1.8-2.3-3-3-1.2-.6-2.8-1-5-1.1v-1.5l18.8-2.6c.8,4.4,1.3,8.1,1.3,11.2h0Z"></path><path class="st1" d="M1352,622l21.1-2.6v47.6c0,3.3.3,5.7.6,7.2s1.1,2.8,2.3,3.8c1.4,1.3,3.9,2.3,7.5,3v1.5h-32.3v-1.5c2.9-.4,5-.9,6.3-1.6,1.3-.7,2.3-1.9,3.1-3.6.5-1.1.9-2.8,1.1-5s.3-5.5.3-9.8v-18c0-5-.1-8.5-.4-10.5-.2-2-.8-3.7-1.6-4.9-.8-1.4-1.8-2.3-3-3-1.2-.6-2.8-1-5-1.1v-1.5h0ZM1367.2,593.2c-1.9,0-3.5-.6-4.7-1.8-1.2-1.2-1.9-2.8-1.9-4.6s.6-3.3,1.9-4.6,2.8-1.9,4.7-1.9,3.4.6,4.7,1.9c1.3,1.2,1.9,2.8,1.9,4.6s-.6,3.4-1.9,4.6c-1.2,1.2-2.8,1.8-4.7,1.8Z"></path><path class="st1" d="M1406.4,620.5h18.6v2.8h-18.6v42.5c0,5.1.9,8.8,2.6,11,.9,1.2,2.1,2.2,3.6,2.8,1.5.7,3.1,1,4.9,1s4-.5,5.5-1.3c1.5-.9,3.1-2.5,4.8-4.9l1.1,1c-1.6,2.9-3.9,5.1-6.8,6.5-2.9,1.4-6.5,2.1-10.8,2.1s-9.9-1.1-12.6-3.4c-1.4-1.2-2.3-2.6-2.8-4.2-.4-1.6-.7-4.6-.7-8.8v-44.3h-7.8v-1.2c3.2-1,6.1-3,8.8-5.9,1.6-1.8,2.9-3.6,3.9-5.4,1-1.8,1.9-4.1,2.8-6.9l.7-2.4h2.7v19h0Z"></path><path class="st1" d="M1424.1,620.5h28.4v1.6c-2,.3-3.4.7-4.3,1.2-1.9,1.1-2.8,2.7-2.8,5s1,5.4,3,10.4l12.2,31.3,10.7-26.3c2.6-6.6,3.9-11.2,3.9-13.9s-.6-3.9-1.8-5.2-3-2.1-5.3-2.4v-1.6h20.9v1.6c-2.1.6-3.6,1.2-4.6,1.8-1,.6-2,1.6-2.9,3-1.4,2.1-3.7,6.9-6.7,14.4l-21.2,51.5c-2.5,6.1-4.6,10.1-6.1,12-2.6,3.1-6,4.6-10,4.6s-4.7-.5-6.2-1.5-2.4-2.3-2.4-3.9.5-2.3,1.4-3c.9-.8,2.1-1.1,3.6-1.1s2.7.3,4.4,1c1.6.6,2.6,1,3.1,1.2.5.2,1,.2,1.6.2,3,0,5.5-2.3,7.4-6.8l2.3-5.6c1-2.3,1.5-4.2,1.5-5.4,0-1.8-.9-4.9-2.8-9.4l-15.2-36.4-2.2-5.3c-1.3-3.1-2.3-5.3-3.1-6.6s-1.5-2.3-2.2-2.8c-1.2-.9-2.7-1.5-4.4-1.7v-1.6h0Z"></path><path class="st1" d="M1531.4,682.3l.2-30.2h1.7c2.1,7.8,4.5,13.8,7.3,18.2,5.3,8.2,12,12.2,20,12.2s10.2-1.9,13.9-5.6c3.7-3.8,5.5-8.5,5.5-14.2s-.4-5-1.2-7.6c-.8-2.6-1.9-4.8-3.2-6.7-1.4-1.9-3.4-3.7-6-5.5-2.6-1.8-6.5-4-11.7-6.7-4.6-2.3-8.2-4.3-10.6-5.9s-4.4-3.2-6-4.9c-4.2-4.6-6.3-10.2-6.3-16.7s.8-7.9,2.4-11.7,3.9-7,6.8-9.7c5.2-4.8,11.3-7.2,18.3-7.2s4.4.2,6.4.7,4.6,1.4,7.8,2.7c2.4,1,4.1,1.6,5,1.9.9.3,1.7.4,2.3.4,1.7,0,2.8-1.2,3.4-3.7h1.7l.5,29h-1.7c-1.3-4.6-2.4-8.2-3.4-10.6-.9-2.5-2.1-4.7-3.4-6.8-2.4-3.8-5-6.6-7.9-8.4s-6.2-2.7-9.9-2.7c-5.4,0-9.8,1.8-12.9,5.6-1.3,1.5-2.3,3.3-3.1,5.3s-1.1,4.1-1.1,6.2c0,8.2,5.2,14.7,15.7,19.7l10.3,5c7.9,3.8,13.7,7.9,17.2,12.4,4,5.1,6,11,6,17.7s-.9,8.8-2.7,12.8c-2.5,5.7-6.3,10.1-11.4,13.2-5.1,3.1-11,4.6-17.9,4.6s-12.3-1.2-18.1-3.7c-3-1.3-4.8-2.1-5.4-2.3-.6-.2-1.2-.3-2-.3-2.3,0-3.9,1.2-4.8,3.5h-1.7Z"></path><path class="st1" d="M1619.2,642.9c-.2,2.4-.3,4.1-.3,5.2,0,4.2.6,8.4,1.9,12.4s2.9,7.4,5.1,10.1c2.2,2.7,4.9,4.9,8.1,6.4s6.6,2.3,10.2,2.3,5.1-.4,7.5-1.3,4.3-2.1,5.9-3.7c1.8-1.7,3.2-4.4,4.5-8.2l1.5.5c-1.3,5.7-4,10-8.2,12.9s-9.7,4.3-16.6,4.3-11.1-1-15.4-2.8c-4.3-1.9-7.9-4.8-10.9-8.8-4.1-5.5-6.2-12.3-6.2-20.3s3.9-19.6,11.8-25.8c5.7-4.5,12.2-6.8,19.5-6.8s7.5.7,10.8,2.1c3.3,1.4,6.1,3.4,8.4,6,3.6,4.1,5.3,9.2,5.3,15.3h-42.9ZM1651,640c-.3-4.9-1.2-8.6-2.7-11.3-1.3-2.4-3.1-4.3-5.2-5.7-2.2-1.4-4.5-2.1-7-2.1-4.2,0-7.8,1.8-10.9,5.4s-5,8.1-5.6,13.6h31.4,0Z"></path><path class="st1" d="M1692,630.7c1.8-3.1,3.7-5.4,5.9-6.9,4-2.9,8.7-4.3,13.8-4.3s5.6.7,7.2,2.1c1.5,1.3,2.3,2.8,2.3,4.7s-.4,2.5-1.3,3.4-2.1,1.3-3.5,1.3-3.1-.7-4.3-2l-2.3-2.5c-1.8-1.9-3.9-2.8-6.4-2.8s-5.9,2.1-7.8,6.4c-1.8,4.3-2.8,10.2-2.8,17.9v19.2c0,3.3.3,5.7.6,7.3s1.1,2.8,2.3,3.8c1.4,1.3,3.9,2.3,7.5,3v1.5h-32.3v-1.5c2.9-.4,5-.9,6.3-1.6,1.3-.7,2.3-1.9,3.1-3.6.5-1.1.9-2.8,1.1-5s.3-5.5.3-9.8v-18c0-5-.1-8.5-.4-10.5-.2-2-.8-3.7-1.6-4.9-.8-1.4-1.8-2.3-3-3-1.2-.6-2.8-1-5-1.1v-1.5l18.8-2.6c.8,4.4,1.3,8.1,1.3,11.2h0Z"></path><path class="st1" d="M1720.2,620.5h28.4v1.6c-2.1.4-3.6.9-4.4,1.5-1.6,1-2.3,2.5-2.3,4.7s.2,2.8.7,4.6c.5,1.8,1.4,4.3,2.7,7.7l11.8,30,11.9-31.2c1.8-4.6,2.6-8.1,2.6-10.3s-.8-4.2-2.3-5.3c-.8-.6-2.2-1.1-4.3-1.5v-1.6h20.2v1.6c-2.7.7-4.9,1.9-6.6,3.7-2.1,2.2-4.5,6.8-7.2,13.8l-16.9,43.1h-3.9l-18.3-45.3c-2.8-7-4.8-11.2-6.1-12.6-.7-.8-1.4-1.3-2.3-1.7-.8-.4-2.1-.7-3.7-.9v-1.6h0Z"></path><path class="st1" d="M1785.9,622l21.1-2.6v47.6c0,3.3.3,5.7.6,7.2s1.1,2.8,2.3,3.8c1.4,1.3,3.9,2.3,7.5,3v1.5h-32.3v-1.5c2.9-.4,5-.9,6.3-1.6,1.3-.7,2.3-1.9,3.1-3.6.5-1.1.9-2.8,1.1-5s.3-5.5.3-9.8v-18c0-5-.1-8.5-.4-10.5-.2-2-.8-3.7-1.6-4.9-.8-1.4-1.8-2.3-3-3-1.2-.6-2.8-1-5-1.1v-1.5h0ZM1801.2,593.2c-1.9,0-3.5-.6-4.7-1.8-1.2-1.2-1.9-2.8-1.9-4.6s.6-3.3,1.9-4.6,2.8-1.9,4.7-1.9,3.4.6,4.7,1.9c1.3,1.2,1.9,2.8,1.9,4.6s-.6,3.4-1.9,4.6c-1.2,1.2-2.8,1.8-4.7,1.8Z"></path><path class="st1" d="M1876.1,668.8l1.5.5c-1.7,5.2-4.3,8.9-7.8,11.2-3.5,2.3-8.3,3.4-14.5,3.4-9.8,0-17.6-2.9-23.2-8.8-5.5-5.8-8.2-13-8.2-21.8s.8-8.5,2.3-12.7c1.5-4.2,3.6-7.8,6.2-10.8,3-3.4,6.6-6,10.9-7.8s9-2.7,14.1-2.7,12.6,1.6,16.6,4.8c2.4,2,3.7,4.1,3.7,6.4s-.5,2.9-1.5,3.9c-1,1-2.3,1.6-3.7,1.6-3.2,0-5.5-2.3-7-6.9-.7-2.1-1.2-3.6-1.6-4.4s-1-1.5-1.8-2c-1.5-1.1-3.3-1.7-5.5-1.7s-5.5.8-7.9,2.4c-2.1,1.4-3.9,3.2-5.4,5.3s-2.8,4.8-3.9,8c-1.7,4.9-2.6,9.8-2.6,14.5s.8,8.6,2.3,12.7c1.6,4.1,3.7,7.6,6.3,10.4,4.2,4.4,9.1,6.6,14.7,6.6s8.5-1.5,11.6-4.5c1.6-1.6,3-4.1,4.4-7.6h0Z"></path><path class="st1" d="M1899.2,642.9c-.2,2.4-.3,4.1-.3,5.2,0,4.2.6,8.4,1.9,12.4s2.9,7.4,5.1,10.1c2.2,2.7,4.9,4.9,8.1,6.4s6.6,2.3,10.2,2.3,5.1-.4,7.5-1.3,4.3-2.1,5.9-3.7c1.8-1.7,3.2-4.4,4.5-8.2l1.5.5c-1.3,5.7-4,10-8.2,12.9s-9.7,4.3-16.6,4.3-11.1-1-15.4-2.8c-4.3-1.9-7.9-4.8-10.9-8.8-4.1-5.5-6.2-12.3-6.2-20.3s3.9-19.6,11.8-25.8c5.7-4.5,12.2-6.8,19.5-6.8s7.5.7,10.8,2.1c3.3,1.4,6.1,3.4,8.4,6,3.6,4.1,5.3,9.2,5.3,15.3h-42.9ZM1931,640c-.3-4.9-1.2-8.6-2.7-11.3-1.3-2.4-3.1-4.3-5.2-5.7-2.2-1.4-4.5-2.1-7-2.1-4.2,0-7.8,1.8-10.9,5.4s-5,8.1-5.6,13.6h31.4,0Z"></path><path class="st1" d="M1956.2,682.6v-20.7h1.2c1.4,5.1,3.1,9.1,5.1,12.1,3.7,5.5,8.1,8.3,13.1,8.3s5.7-.9,7.9-2.8c2.4-2,3.7-5,3.7-8.7s-.9-5.8-2.6-8c-1-1.2-2.2-2.3-3.7-3.4-1.5-1-4-2.5-7.5-4.3-6.1-3.3-10.2-6-12.2-8.2-2.9-3.1-4.4-6.7-4.4-10.8s1.5-8.2,4.4-11.3c3.4-3.6,7.8-5.4,13.4-5.4s4.8.4,6.9,1.3l2.5,1.1c.8.3,1.5.4,2.1.4.9,0,1.8-.7,2.6-2.2h1.5l.8,16.6h-1.5c-.5-2.3-1.1-4.2-1.7-5.6-.6-1.4-1.5-2.8-2.6-4.1-1.5-1.8-3.3-3.3-5.2-4.3s-4-1.6-5.9-1.6-5,1-7,3-2.9,4.4-2.9,7.3.9,4.5,2.6,6.5,4.4,3.7,8,5.3l7.7,3.5c4.6,2.1,8.1,4.7,10.4,7.8,2.3,3.1,3.4,6.8,3.4,11s-1.7,9.4-5,12.7c-3.8,3.9-8.7,5.8-14.6,5.8s-6.5-.6-9.8-1.9c-2.1-.8-3.4-1.3-3.9-1.4-.4-.1-1-.2-1.7-.2-1.7,0-3,.7-3.9,2.2h-1.2Z"></path></g><g><path class="st1" d="M985.8,1003v10.4h14.7v6.7h-14.7v13.3h20.1v7h-28v-44.4h28.4v7h-20.5Z"></path><path class="st1" d="M1033.7,1040.4l-8.3-10.6-7.5,10.6h-9l12.5-16.6-11.5-15.9h8.7l6.8,9.9,7.6-9.9h8.6l-12.5,15.9,13.6,16.6h-9.2,0Z"></path><path class="st1" d="M1072.6,1010.5l-3.2,5.7c-1.8-1.7-4.2-2.5-7.2-2.5s-5.1,1-6.8,2.9-2.5,4.5-2.5,7.9c0,6.8,3.2,10.2,9.7,10.2s5.3-.9,7.4-2.8l2.8,6c-2.2,1.4-4.1,2.2-5.8,2.6-1.7.4-3.6.6-5.8.6-5,0-9-1.5-11.9-4.4s-4.3-7-4.3-12.2,1.6-9.2,4.8-12.4c3.2-3.2,7.5-4.7,13-4.7s7.1,1.1,9.9,3.2h0Z"></path><path class="st1" d="M1107.9,1026.5h-23.2c.1,2.6,1,4.6,2.7,6,1.6,1.4,3.8,2.2,6.6,2.2s6.1-.9,7.9-2.7l2.9,5.8c-2.7,2.2-6.7,3.2-11.9,3.2s-8.9-1.4-11.8-4.3-4.3-6.9-4.3-12.2,1.6-9.3,4.8-12.4c3.2-3.2,7-4.8,11.4-4.8s8.5,1.4,11.3,4.2,4.3,6.4,4.3,10.7-.2,2.3-.6,4.2h0ZM1084.9,1020.8h15.9c-.5-4.8-3.2-7.1-7.9-7.1s-7,2.4-8.1,7.1h0Z"></path><path class="st1" d="M1115.9,995.9l7.6-1.8v36.5c0,4,1.2,6.4,3.6,7.2-1.2,2.2-3.2,3.3-6,3.3s-5.2-2.4-5.2-7.2v-38h0Z"></path><path class="st1" d="M1134.2,995.9l7.6-1.8v36.5c0,4,1.2,6.4,3.6,7.2-1.2,2.2-3.2,3.3-6,3.3s-5.2-2.4-5.2-7.2v-38h0Z"></path><path class="st1" d="M1180.2,1026.5h-23.2c.1,2.6,1,4.6,2.7,6s3.8,2.2,6.6,2.2,6.1-.9,7.9-2.7l2.9,5.8c-2.7,2.2-6.7,3.2-11.9,3.2s-8.9-1.4-11.8-4.3-4.3-6.9-4.3-12.2,1.6-9.3,4.8-12.4c3.2-3.2,7-4.8,11.4-4.8s8.5,1.4,11.3,4.2,4.3,6.4,4.3,10.7-.2,2.3-.6,4.2h0ZM1157.3,1020.8h15.9c-.5-4.8-3.2-7.1-7.9-7.1s-7,2.4-8.1,7.1h0Z"></path><path class="st1" d="M1207.8,1040.4v-18.8c0-2.8-.5-4.8-1.6-6.1s-2.8-1.9-5.2-1.9-2.3.3-3.6.9-2.2,1.4-3,2.3v23.5h-7.6v-32.5h5.5l1.4,3c2.1-2.4,5.1-3.6,9.1-3.6s6.9,1.2,9.1,3.5c2.2,2.3,3.3,5.5,3.3,9.7v19.9h-7.6Z"></path><path class="st1" d="M1249.1,1010.5l-3.2,5.7c-1.8-1.7-4.2-2.5-7.2-2.5s-5.1,1-6.8,2.9-2.5,4.5-2.5,7.9c0,6.8,3.2,10.2,9.7,10.2s5.3-.9,7.4-2.8l2.8,6c-2.2,1.4-4.1,2.2-5.8,2.6-1.7.4-3.6.6-5.8.6-5,0-9-1.5-11.9-4.4s-4.3-7-4.3-12.2,1.6-9.2,4.8-12.4c3.2-3.2,7.5-4.7,13-4.7s7.1,1.1,9.9,3.2h0Z"></path><path class="st1" d="M1284.4,1026.5h-23.2c.1,2.6,1,4.6,2.7,6,1.6,1.4,3.8,2.2,6.6,2.2s6.1-.9,7.9-2.7l2.9,5.8c-2.7,2.2-6.7,3.2-11.9,3.2s-8.9-1.4-11.8-4.3-4.3-6.9-4.3-12.2,1.6-9.3,4.8-12.4c3.2-3.2,7-4.8,11.4-4.8s8.5,1.4,11.3,4.2,4.3,6.4,4.3,10.7-.2,2.3-.6,4.2h0ZM1261.4,1020.8h15.9c-.5-4.8-3.2-7.1-7.9-7.1s-7,2.4-8.1,7.1h0Z"></path><path class="st1" d="M1327.9,1037.2c-.7,1.1-1.9,2.1-3.6,2.8-1.7.7-3.5,1.1-5.3,1.1-3.5,0-6.2-.9-8.2-2.6s-3-4.2-3-7.4,1.4-6.7,4.2-8.8c2.8-2.1,6.8-3.2,12-3.2s1.9.2,3.2.5c0-3.8-2.4-5.7-7.2-5.7s-5.2.5-7.2,1.4l-1.6-5.9c2.6-1.2,5.7-1.9,9.3-1.9s8.6,1.1,10.9,3.4,3.5,6.5,3.5,12.8v7c0,4.3.9,7.1,2.6,8.2-.6,1.1-1.3,1.8-2.1,2-.8.2-1.7.4-2.6.4s-2.1-.4-2.9-1.2c-.9-.8-1.5-1.7-1.8-2.6h0ZM1327.1,1025.2c-1.3-.3-2.3-.4-2.9-.4-6,0-9,2-9,5.9s1.7,4.4,5.1,4.4,6.8-2.3,6.8-6.8v-3h0Z"></path><path class="st1" d="M1340.9,1038.3l2.7-6c2.3,1.8,4.8,2.7,7.7,2.7s4.4-1.1,4.4-3.2-.4-2.2-1.3-3c-.9-.8-2.6-1.7-5.2-2.8-5.6-2.3-8.4-5.6-8.4-9.8s1.1-5,3.2-6.6,4.9-2.3,8.2-2.3,6.6.8,9.5,2.3l-2.2,5.9c-1.7-1.4-4-2.1-6.9-2.1s-4,1-4,3.2.4,1.6,1.3,2.2c.9.7,2.7,1.6,5.6,2.7s4.9,2.5,6.2,4.1c1.2,1.6,1.9,3.5,1.9,5.8s-1.1,5.4-3.3,7.1-5.3,2.6-9.1,2.6-3.9-.2-5.2-.5c-1.3-.3-3-1.1-5-2.2h0Z"></path><path class="st1" d="M1386.7,1038l2.9-7.1c3.1,2.2,6.2,3.3,9.2,3.3,4.6,0,6.9-1.6,6.9-4.8s-.6-3-1.6-4.3c-1.1-1.4-3.3-2.9-6.8-4.6s-5.7-3.1-6.9-4.2-2.1-2.4-2.7-3.9-1-3.2-1-5c0-3.4,1.3-6.3,3.8-8.5s5.8-3.4,9.7-3.4,8.9,1,11.3,2.9l-2.4,6.8c-2.8-2-5.7-3-8.8-3s-3.2.5-4.2,1.4-1.5,2.2-1.5,3.8c0,2.5,2.8,5.2,8.5,8,3,1.5,5.1,2.8,6.4,4,1.3,1.2,2.3,2.7,3,4.3.7,1.6,1,3.4,1,5.4,0,3.6-1.4,6.6-4.3,8.9s-6.7,3.5-11.4,3.5-7.9-1.1-11.2-3.2h0Z"></path><path class="st1" d="M1421.2,1014.1h-3.8v-6.1h3.8v-6.6l7.6-2.8v9.4h8.9v6.1h-8.9v14.2c0,2.3.4,4,1.1,4.9s2,1.4,3.8,1.4,3.5-.5,5.1-1.5v7c-1.8.6-4.3.9-7.5.9s-5.7-.9-7.5-2.7-2.6-4.4-2.6-7.8v-16.4h0Z"></path><path class="st1" d="M1462.8,1037.2c-.7,1.1-1.9,2.1-3.6,2.8-1.7.7-3.5,1.1-5.3,1.1-3.5,0-6.2-.9-8.2-2.6s-3-4.2-3-7.4,1.4-6.7,4.2-8.8c2.8-2.1,6.8-3.2,12-3.2s1.9.2,3.2.5c0-3.8-2.4-5.7-7.2-5.7s-5.2.5-7.2,1.4l-1.6-5.9c2.6-1.2,5.7-1.9,9.3-1.9s8.6,1.1,10.9,3.4,3.5,6.5,3.5,12.8v7c0,4.3.9,7.1,2.6,8.2-.6,1.1-1.3,1.8-2.1,2-.8.2-1.7.4-2.6.4s-2.1-.4-2.9-1.2c-.9-.8-1.5-1.7-1.8-2.6h0ZM1462.1,1025.2c-1.3-.3-2.3-.4-2.9-.4-6,0-9,2-9,5.9s1.7,4.4,5.1,4.4,6.8-2.3,6.8-6.8v-3h0Z"></path><path class="st1" d="M1498.7,1040.4v-18.8c0-2.8-.5-4.8-1.6-6.1-1.1-1.3-2.8-1.9-5.2-1.9s-2.3.3-3.6.9-2.2,1.4-3,2.3v23.5h-7.6v-32.5h5.5l1.4,3c2.1-2.4,5.1-3.6,9.1-3.6s6.9,1.2,9.1,3.5,3.3,5.5,3.3,9.7v19.9h-7.6Z"></path><path class="st1" d="M1535.4,1040.4v-2c-.6.7-1.7,1.3-3.2,1.8s-3,.8-4.6.8c-4.5,0-8.1-1.4-10.7-4.3-2.6-2.9-3.9-6.9-3.9-12s1.5-9.3,4.5-12.5c3-3.2,6.7-4.8,11.2-4.8s4.7.5,6.7,1.5v-13l7.6-1.8v46.4h-7.6,0ZM1535.4,1015.7c-1.6-1.3-3.3-1.9-5.1-1.9-3,0-5.4.9-7,2.8-1.6,1.8-2.5,4.5-2.5,8,0,6.8,3.3,10.1,9.8,10.1s1.6-.2,2.7-.7,1.8-.9,2.1-1.3v-17h0Z"></path><path class="st1" d="M1568.6,1037.2c-.7,1.1-1.9,2.1-3.6,2.8-1.7.7-3.5,1.1-5.3,1.1-3.5,0-6.2-.9-8.2-2.6s-3-4.2-3-7.4,1.4-6.7,4.2-8.8c2.8-2.1,6.8-3.2,12-3.2s1.9.2,3.2.5c0-3.8-2.4-5.7-7.2-5.7s-5.2.5-7.2,1.4l-1.6-5.9c2.6-1.2,5.7-1.9,9.3-1.9s8.6,1.1,10.9,3.4,3.5,6.5,3.5,12.8v7c0,4.3.9,7.1,2.6,8.2-.6,1.1-1.3,1.8-2.1,2-.8.2-1.7.4-2.6.4s-2.1-.4-2.9-1.2c-.9-.8-1.5-1.7-1.8-2.6h0ZM1567.9,1025.2c-1.3-.3-2.3-.4-2.9-.4-6,0-9,2-9,5.9s1.7,4.4,5.1,4.4,6.8-2.3,6.8-6.8v-3h0Z"></path><path class="st1" d="M1602.4,1015c-1.3-.9-2.8-1.3-4.5-1.3s-3.3.8-4.7,2.4c-1.4,1.6-2.1,3.5-2.1,5.8v18.5h-7.6v-32.5h7.6v3c2.1-2.4,4.9-3.6,8.5-3.6s4.6.4,5.9,1.2l-3.2,6.5h0Z"></path><path class="st1" d="M1631.1,1040.4v-2c-.6.7-1.7,1.3-3.2,1.8s-3,.8-4.6.8c-4.5,0-8.1-1.4-10.7-4.3s-3.9-6.9-3.9-12,1.5-9.3,4.5-12.5c3-3.2,6.7-4.8,11.2-4.8s4.7.5,6.7,1.5v-13l7.6-1.8v46.4h-7.6,0ZM1631.1,1015.7c-1.6-1.3-3.3-1.9-5.1-1.9-3,0-5.4.9-7,2.8-1.6,1.8-2.5,4.5-2.5,8,0,6.8,3.3,10.1,9.8,10.1s1.6-.2,2.7-.7,1.8-.9,2.1-1.3v-17h0Z"></path></g></svg>