<?xml version="1.0" encoding="UTF-8"?><svg id="Logos" xmlns="http://www.w3.org/2000/svg" xmlns:xlink="http://www.w3.org/1999/xlink" viewBox="0 0 2264.85 1309.89"><defs><style>.cls-1{fill:#02aef0;}.cls-2{fill:#fff;}.cls-3{fill:#184c9c;}.cls-4{fill:url(#radial-gradient-3);}.cls-5{fill:url(#radial-gradient-2);}.cls-6{fill:url(#radial-gradient);}</style><radialGradient id="radial-gradient" cx="639.94" cy="639.94" fx="639.94" fy="639.94" r="348.57" gradientUnits="userSpaceOnUse"><stop offset="0" stop-color="#6fa6d7"/><stop offset="1" stop-color="#184c9c"/></radialGradient><radialGradient id="radial-gradient-2" cx="1021.62" cy="639.94" fx="1021.62" fy="639.94" r="297.72" xlink:href="#radial-gradient"/><radialGradient id="radial-gradient-3" cx="1391.03" cy="639.94" fx="1391.03" fy="639.94" r="260.67" xlink:href="#radial-gradient"/></defs><g><g><circle class="cls-1" cx="639.94" cy="639.94" r="371.26"/><circle class="cls-6" cx="639.94" cy="639.94" r="348.57"/></g><g><circle class="cls-1" cx="1021.62" cy="639.94" r="317.09"/><circle class="cls-5" cx="1021.62" cy="639.94" r="297.72"/></g><g><circle class="cls-1" cx="1391.03" cy="639.94" r="277.63"/><circle class="cls-4" cx="1391.03" cy="639.94" r="260.67"/></g></g><g><path class="cls-2" d="m411.85,707.04v-60.01h3.39c3.95,14.71,8.88,26.44,14.81,35.2,10.86,15.98,23.55,23.96,38.08,23.96,8.88,0,16.57-2.68,23.06-8.06,7.05-5.94,10.58-14.35,10.58-25.24,0-8.91-2.54-16.68-7.61-23.33-2.82-3.53-6.39-6.79-10.69-9.75-4.3-2.97-11.53-7.14-21.68-12.51-17.77-9.47-29.62-17.39-35.54-23.75-8.46-9.05-12.69-19.51-12.69-31.39,0-12.72,4.24-23.68,12.72-32.87,9.75-10.46,22.69-15.69,38.81-15.69,7.21,0,13.92,1.27,20.15,3.82l7.21,3.18c2.26.85,4.24,1.27,5.94,1.27,2.68,0,5.23-2.12,7.63-6.36h4.24l2.33,48.14h-4.45c-1.55-6.79-3.21-12.23-4.97-16.33-1.76-4.1-4.26-8.06-7.51-11.88-4.37-5.37-9.45-9.58-15.23-12.62-5.78-3.04-11.49-4.56-17.13-4.56-7.9,0-14.63,2.86-20.2,8.59-5.57,5.73-8.35,12.76-8.35,21.1,0,6.93,2.5,13.18,7.51,18.77,5.01,5.59,12.73,10.71,23.17,15.37l22.43,10.18c13.4,6.08,23.42,13.65,30.05,22.69,6.63,9.05,9.94,19.72,9.94,32.02,0,14.84-4.81,27.14-14.42,36.9-11.03,11.31-25.17,16.97-42.41,16.97-9.33,0-18.8-1.84-28.42-5.51-6.22-2.4-9.97-3.78-11.24-4.14-1.27-.35-2.9-.53-4.88-.53-4.95,0-8.69,2.12-11.24,6.36h-3.39Z"/><path class="cls-2" d="m592.48,729.58l-3.93,1.09c-2.48-4.08-4.95-6.91-7.42-8.51-2.48-1.6-5.53-2.4-9.17-2.4-6.11,0-11.1,2.33-14.95,6.98-3.86,4.66-5.78,10.69-5.78,18.12,0,11.79,5.89,21.46,17.68,29.03,11.79,7.56,26.85,11.35,45.18,11.35,19.5,0,35.25-4.18,47.26-12.55,12-8.37,18.01-19.25,18.01-32.63,0-10.77-4-19.03-12-24.77-8-5.75-19.43-8.62-34.27-8.62h-34.7c-14.26,0-25.76-3.36-34.49-10.07-9.02-7-13.53-15.4-13.53-25.18,0-10.36,4.8-18.54,14.41-24.52,4.95-2.92,13.97-6.06,27.07-9.42-12.66-5.81-22.48-13.47-29.47-22.98-6.98-9.51-10.48-20.01-10.48-31.48,0-14.67,5.46-27.74,16.38-39.21,6.4-6.82,13.98-12.12,22.71-15.9,8.73-3.78,17.69-5.66,26.86-5.66,13.98,0,28.24,4.95,42.8,14.84,6.85-5.38,13.02-9.2,18.49-11.46,5.47-2.25,11.41-3.38,17.83-3.38,7.15,0,12.91,1.53,17.28,4.58,5.25,3.79,7.88,8.44,7.88,13.97,0,3.35-1.03,6.15-3.09,8.4-2.06,2.26-4.62,3.38-7.71,3.38-4.7,0-8.96-2.47-12.78-7.42l-5.01-6.55c-2.76-3.49-6.68-5.24-11.76-5.24-5.37,0-11.03,2.69-16.98,8.08,11.87,14.41,17.81,29.25,17.81,44.53,0,19.06-8.46,34.12-25.39,45.18-8.46,5.53-17.58,9.24-27.36,11.13-2.92.44-12.18,1.17-27.8,2.18-21.39,1.31-32.09,7.28-32.09,17.9,0,9.31,9.11,13.97,27.33,13.97h36.07c12.68,0,23.39,1.13,32.14,3.38,8.74,2.26,16.39,5.78,22.96,10.59,12.82,9.46,19.24,22.77,19.24,39.94,0,18.91-7.43,33.69-22.29,44.31-15.3,10.91-37.74,16.37-67.32,16.37-31.76,0-54.27-6.4-67.53-19.21-8.45-8.29-12.68-18.63-12.68-30.99,0-9.75,3.13-18.01,9.39-24.77,6.25-6.77,13.89-10.15,22.92-10.15,6.55,0,11.9,1.96,16.04,5.89,4.15,3.93,6.22,9.09,6.22,15.5v2.4Zm-9.39-145.04c0,15.68,3.3,28.46,9.9,38.34,6.6,9.88,15.05,14.81,25.35,14.81s18.56-4.9,24.37-14.7c5.8-9.8,8.7-23.42,8.7-40.85s-3.77-32.38-11.31-43.13c-5.51-7.99-12.62-11.98-21.32-11.98-10.45,0-18.86,5.23-25.24,15.68-3.19,5.23-5.73,11.62-7.62,19.17-1.89,7.55-2.83,15.1-2.83,22.66Z"/><path class="cls-2" d="m876.22,661.94l4.09,1.43c-4.78,14.46-12.07,24.9-21.9,31.31-9.82,6.41-23.33,9.62-40.52,9.62-27.56,0-49.18-8.19-64.87-24.56-15.28-16.1-22.92-36.43-22.92-60.98,0-12,2.11-23.87,6.34-35.61,4.23-11.73,10.03-21.76,17.39-30.08,8.32-9.55,18.52-16.85,30.59-21.9,12.07-5.05,25.27-7.57,39.6-7.57,19.78,0,35.26,4.43,46.45,13.3,6.82,5.46,10.23,11.46,10.23,18.01,0,4.37-1.43,8.02-4.3,10.95-2.86,2.94-6.34,4.4-10.44,4.4-8.87,0-15.42-6.48-19.65-19.44-1.91-6-3.44-10.09-4.59-12.28-1.16-2.18-2.82-4.09-5-5.73-4.22-3.14-9.39-4.71-15.51-4.71-8.03,0-15.45,2.25-22.25,6.75-5.99,3.96-11.06,8.9-15.21,14.84-4.15,5.93-7.79,13.4-10.92,22.41-4.76,13.78-7.14,27.29-7.14,40.52,0,12.14,2.18,24.01,6.54,35.61,4.35,11.6,10.28,21.28,17.77,29.06,11.71,12.28,25.46,18.42,41.26,18.42,13.07,0,23.9-4.16,32.48-12.48,4.35-4.36,8.51-11.46,12.46-21.28Z"/></g><g><path class="cls-2" d="m1020.58,682.34l.22-30.19,1.68.07c2.05,7.68,4.48,13.73,7.31,18.16,5.31,8.17,11.99,12.25,20.03,12.25,5.6,0,10.23-1.88,13.89-5.63,3.66-3.75,5.48-8.5,5.48-14.25,0-2.49-.4-5.02-1.21-7.6-.8-2.58-1.89-4.8-3.25-6.65-1.41-1.9-3.4-3.73-5.96-5.48-2.56-1.75-6.47-3.97-11.73-6.65-4.63-2.34-8.17-4.31-10.64-5.92s-4.45-3.24-5.96-4.9c-4.19-4.58-6.29-10.16-6.29-16.74,0-4.04.82-7.94,2.45-11.69,1.63-3.75,3.91-6.97,6.83-9.65,5.17-4.78,11.28-7.16,18.35-7.16,2.29,0,4.41.23,6.36.69,1.95.46,4.56,1.38,7.82,2.74,2.44.98,4.09,1.6,4.97,1.86.88.27,1.66.4,2.34.4,1.71,0,2.85-1.24,3.44-3.73h1.68l.51,29.02h-1.68c-1.31-4.63-2.45-8.17-3.39-10.64-.95-2.46-2.08-4.74-3.39-6.83-2.38-3.8-5.01-6.61-7.88-8.44-2.87-1.83-6.18-2.74-9.92-2.74-5.45,0-9.75,1.85-12.92,5.56-1.31,1.51-2.35,3.29-3.1,5.34s-1.13,4.1-1.13,6.15c0,8.15,5.23,14.71,15.69,19.68l10.29,4.98c7.93,3.76,13.65,7.9,17.15,12.44,3.99,5.07,5.98,10.98,5.98,17.71,0,4.47-.9,8.75-2.71,12.83-2.53,5.69-6.33,10.08-11.4,13.16-5.07,3.09-11.04,4.63-17.91,4.63-6.29,0-12.33-1.24-18.13-3.73-3.02-1.32-4.82-2.07-5.41-2.27-.58-.19-1.24-.29-1.97-.29-2.34,0-3.95,1.17-4.82,3.51h-1.68Z"/><path class="cls-2" d="m1108.29,642.87c-.2,2.39-.29,4.12-.29,5.19,0,4.24.62,8.38,1.86,12.43,1.24,4.05,2.93,7.41,5.06,10.09,2.19,2.73,4.89,4.87,8.12,6.43,3.23,1.56,6.62,2.34,10.16,2.34,2.62,0,5.11-.44,7.47-1.32,2.35-.88,4.31-2.09,5.86-3.65,1.75-1.71,3.25-4.43,4.52-8.19l1.54.51c-1.27,5.7-3.98,10-8.15,12.9-4.17,2.9-9.71,4.35-16.63,4.35-5.99,0-11.14-.95-15.42-2.85-4.29-1.9-7.92-4.82-10.89-8.77-4.14-5.51-6.21-12.28-6.21-20.32,0-10.96,3.92-19.56,11.77-25.8,5.7-4.53,12.21-6.8,19.52-6.8,3.9,0,7.5.69,10.82,2.08,3.31,1.39,6.11,3.4,8.41,6.03,3.56,4.09,5.34,9.21,5.34,15.35h-42.83Zm31.87-2.85c-.34-4.87-1.24-8.62-2.69-11.26-1.31-2.39-3.06-4.28-5.24-5.66-2.18-1.39-4.51-2.08-6.99-2.08-4.17,0-7.82,1.8-10.95,5.41-3.13,3.61-4.98,8.14-5.57,13.6h31.43Z"/><path class="cls-2" d="m1214.94,668.82l1.46.51c-1.71,5.17-4.31,8.89-7.82,11.18-3.51,2.29-8.33,3.44-14.47,3.44-9.84,0-17.57-2.92-23.17-8.77-5.46-5.75-8.19-13.01-8.19-21.78,0-4.29.75-8.53,2.27-12.72,1.51-4.19,3.58-7.77,6.21-10.75,2.97-3.41,6.62-6.02,10.93-7.82,4.31-1.8,9.03-2.7,14.14-2.7,7.07,0,12.6,1.58,16.59,4.75,2.44,1.95,3.65,4.09,3.65,6.43,0,1.56-.51,2.86-1.54,3.91-1.02,1.05-2.27,1.57-3.73,1.57-3.17,0-5.51-2.31-7.02-6.94-.68-2.14-1.23-3.61-1.64-4.39-.41-.78-1.01-1.46-1.79-2.05-1.51-1.12-3.35-1.68-5.54-1.68-2.87,0-5.52.8-7.95,2.41-2.14,1.41-3.95,3.18-5.43,5.3s-2.78,4.79-3.9,8c-1.7,4.92-2.55,9.75-2.55,14.47,0,4.34.78,8.58,2.33,12.72,1.56,4.14,3.67,7.6,6.35,10.38,4.18,4.39,9.1,6.58,14.74,6.58,4.67,0,8.54-1.49,11.6-4.46,1.56-1.56,3.04-4.09,4.45-7.6Z"/><path class="cls-2" d="m1275.17,683.95c-.63-2.97-.95-6.01-.95-9.12-6.09,6.08-13.3,9.12-21.64,9.12-6.09,0-10.99-1.48-14.69-4.45-3.61-2.92-5.41-7.06-5.41-12.41v-25.41l-.07-5.55c0-3.31-.2-5.72-.58-7.23-.39-1.51-1.12-2.8-2.19-3.87-1.41-1.31-3.95-2.29-7.6-2.92v-1.61h21.49v37.06c0,5.21.18,9.08.55,11.59.36,2.51,1.03,4.57,2.01,6.18,1.07,1.66,2.6,2.96,4.59,3.91,1.99.95,4.23,1.43,6.71,1.43,2.72,0,5.27-.53,7.66-1.61,2.38-1.07,4.25-2.53,5.61-4.38,1.41-1.9,2.35-4.09,2.81-6.57.46-2.48.69-6.57.69-12.26v-14.31l-.07-5.4c0-3.31-.18-5.72-.55-7.23s-1.11-2.8-2.23-3.87c-1.36-1.31-3.9-2.29-7.6-2.92v-1.61h21.49v39.64c0,5.01.13,8.53.4,10.55.27,2.02.79,3.66,1.57,4.93.88,1.36,1.9,2.35,3.07,2.96,1.17.61,2.85.99,5.04,1.13v1.54l-20.1,2.7Z"/><path class="cls-2" d="m1320.05,630.65c1.75-3.07,3.73-5.38,5.92-6.94,4.04-2.87,8.65-4.31,13.81-4.31,3.17,0,5.58.71,7.24,2.12,1.51,1.27,2.27,2.82,2.27,4.67,0,1.36-.45,2.48-1.35,3.36-.9.88-2.06,1.31-3.47,1.31-1.66,0-3.09-.68-4.31-2.04l-2.27-2.48c-1.8-1.9-3.92-2.85-6.36-2.85-3.31,0-5.9,2.14-7.75,6.42-1.85,4.28-2.78,10.24-2.78,17.89v13.65l.07,5.55c0,3.31.19,5.73.58,7.26.39,1.53,1.14,2.81,2.27,3.83,1.36,1.31,3.87,2.31,7.53,2.99v1.54h-32.31v-1.54c2.92-.39,5.02-.93,6.29-1.64,1.27-.7,2.29-1.9,3.07-3.6.54-1.11.91-2.8,1.13-5.05.22-2.25.33-5.52.33-9.78v-17.96c0-4.99-.12-8.5-.37-10.51-.24-2.01-.78-3.65-1.61-4.91-.83-1.36-1.83-2.34-3-2.95-1.17-.6-2.85-.98-5.04-1.13v-1.54l18.84-2.63c.84,4.37,1.26,8.12,1.26,11.25Z"/><path class="cls-2" d="m1351.99,622.04l21.05-2.63v42.1l.07,5.54c0,3.3.19,5.72.58,7.25.39,1.53,1.14,2.81,2.27,3.82,1.36,1.31,3.87,2.31,7.53,2.99v1.54h-32.31v-1.54c2.92-.39,5.02-.93,6.29-1.64,1.27-.7,2.29-1.9,3.07-3.6.54-1.11.91-2.8,1.13-5.05.22-2.25.33-5.52.33-9.78v-17.96c0-4.99-.12-8.5-.37-10.51-.24-2.01-.78-3.65-1.61-4.91-.83-1.36-1.83-2.34-3-2.95-1.17-.6-2.85-.98-5.04-1.13v-1.54Zm15.24-28.87c-1.91,0-3.49-.61-4.74-1.83-1.25-1.22-1.87-2.75-1.87-4.6s.64-3.33,1.91-4.57c1.27-1.24,2.84-1.86,4.7-1.86s3.43.62,4.7,1.86c1.27,1.24,1.91,2.77,1.91,4.57s-.62,3.39-1.87,4.6c-1.25,1.22-2.83,1.83-4.74,1.83Z"/><path class="cls-2" d="m1406.37,620.5h18.57v2.78h-18.57v42.54c0,5.12.87,8.77,2.62,10.96.92,1.22,2.14,2.17,3.64,2.85,1.51.68,3.13,1.02,4.88,1.02,2.19,0,4.01-.45,5.46-1.35,1.46-.9,3.06-2.55,4.81-4.93l1.09.95c-1.61,2.92-3.86,5.09-6.76,6.51-2.9,1.41-6.52,2.12-10.85,2.12-5.75,0-9.94-1.12-12.57-3.36-1.41-1.17-2.34-2.57-2.78-4.2-.44-1.63-.66-4.57-.66-8.81v-44.29h-7.82v-1.17c3.17-1.02,6.09-3,8.78-5.92,1.62-1.8,2.92-3.59,3.9-5.37.98-1.78,1.91-4.08,2.8-6.91l.74-2.41h2.72v19Z"/><path class="cls-2" d="m1424.06,620.5h28.36v1.61c-2,.29-3.44.68-4.31,1.17-1.9,1.07-2.85,2.73-2.85,4.96,0,1.95.99,5.43,2.98,10.44l12.22,31.31,10.67-26.35c2.63-6.57,3.95-11.21,3.95-13.94,0-2.19-.61-3.93-1.83-5.22s-3-2.08-5.34-2.37v-1.61h20.91v1.61c-2.1.58-3.64,1.19-4.64,1.83-1,.63-1.96,1.63-2.89,3-1.41,2.14-3.66,6.94-6.72,14.4l-21.2,51.46c-2.53,6.14-4.58,10.13-6.14,11.99-2.63,3.07-5.97,4.6-10.01,4.6-2.58,0-4.67-.5-6.25-1.5-1.58-1-2.38-2.3-2.38-3.91,0-1.27.46-2.28,1.38-3.03.92-.76,2.14-1.13,3.64-1.13,1.26,0,2.72.34,4.37,1.02,1.6.63,2.64,1.02,3.1,1.17.46.15,1.01.22,1.64.22,3.01,0,5.47-2.28,7.36-6.83l2.26-5.58c.97-2.35,1.46-4.16,1.46-5.43,0-1.8-.92-4.94-2.77-9.42l-15.15-36.43-2.18-5.26c-1.32-3.12-2.34-5.33-3.07-6.64-.73-1.31-1.46-2.26-2.19-2.85-1.22-.92-2.68-1.48-4.39-1.68v-1.61Z"/><path class="cls-2" d="m1531.43,682.34l.22-30.19,1.68.07c2.05,7.68,4.48,13.73,7.31,18.16,5.31,8.17,11.99,12.25,20.03,12.25,5.6,0,10.23-1.88,13.89-5.63,3.65-3.75,5.48-8.5,5.48-14.25,0-2.49-.4-5.02-1.21-7.6-.8-2.58-1.89-4.8-3.25-6.65-1.41-1.9-3.4-3.73-5.96-5.48-2.56-1.75-6.47-3.97-11.73-6.65-4.63-2.34-8.17-4.31-10.63-5.92-2.46-1.61-4.45-3.24-5.96-4.9-4.19-4.58-6.29-10.16-6.29-16.74,0-4.04.82-7.94,2.45-11.69,1.63-3.75,3.91-6.97,6.83-9.65,5.16-4.78,11.28-7.16,18.35-7.16,2.29,0,4.41.23,6.36.69,1.95.46,4.56,1.38,7.82,2.74,2.44.98,4.09,1.6,4.97,1.86.88.27,1.66.4,2.34.4,1.71,0,2.85-1.24,3.43-3.73h1.68l.51,29.02h-1.68c-1.31-4.63-2.44-8.17-3.39-10.64-.95-2.46-2.08-4.74-3.39-6.83-2.38-3.8-5.01-6.61-7.88-8.44-2.87-1.83-6.18-2.74-9.92-2.74-5.45,0-9.75,1.85-12.91,5.56-1.31,1.51-2.35,3.29-3.1,5.34s-1.13,4.1-1.13,6.15c0,8.15,5.23,14.71,15.69,19.68l10.29,4.98c7.93,3.76,13.65,7.9,17.15,12.44,3.99,5.07,5.98,10.98,5.98,17.71,0,4.47-.9,8.75-2.7,12.83-2.54,5.69-6.33,10.08-11.4,13.16-5.07,3.09-11.04,4.63-17.91,4.63-6.29,0-12.33-1.24-18.13-3.73-3.02-1.32-4.82-2.07-5.41-2.27-.58-.19-1.24-.29-1.97-.29-2.34,0-3.95,1.17-4.82,3.51h-1.68Z"/><path class="cls-2" d="m1619.15,642.87c-.2,2.39-.29,4.12-.29,5.19,0,4.24.62,8.38,1.86,12.43,1.24,4.05,2.93,7.41,5.06,10.09,2.19,2.73,4.89,4.87,8.12,6.43,3.23,1.56,6.62,2.34,10.16,2.34,2.62,0,5.11-.44,7.47-1.32,2.36-.88,4.31-2.09,5.86-3.65,1.75-1.71,3.25-4.43,4.52-8.19l1.54.51c-1.27,5.7-3.98,10-8.15,12.9-4.17,2.9-9.71,4.35-16.63,4.35-5.99,0-11.14-.95-15.42-2.85-4.29-1.9-7.92-4.82-10.89-8.77-4.14-5.51-6.21-12.28-6.21-20.32,0-10.96,3.92-19.56,11.77-25.8,5.7-4.53,12.21-6.8,19.52-6.8,3.9,0,7.5.69,10.82,2.08,3.31,1.39,6.12,3.4,8.41,6.03,3.56,4.09,5.34,9.21,5.34,15.35h-42.83Zm31.87-2.85c-.34-4.87-1.24-8.62-2.69-11.26-1.31-2.39-3.06-4.28-5.24-5.66-2.18-1.39-4.51-2.08-6.98-2.08-4.17,0-7.82,1.8-10.95,5.41-3.13,3.61-4.98,8.14-5.57,13.6h31.43Z"/><path class="cls-3" d="m1692.02,630.65c1.75-3.07,3.73-5.38,5.92-6.94,4.04-2.87,8.65-4.31,13.81-4.31,3.17,0,5.58.71,7.24,2.12,1.51,1.27,2.27,2.82,2.27,4.67,0,1.36-.45,2.48-1.35,3.36-.9.88-2.06,1.31-3.47,1.31-1.66,0-3.1-.68-4.31-2.04l-2.27-2.48c-1.8-1.9-3.92-2.85-6.36-2.85-3.31,0-5.9,2.14-7.75,6.42-1.85,4.28-2.78,10.24-2.78,17.89v13.65l.07,5.55c0,3.31.19,5.73.58,7.26.39,1.53,1.14,2.81,2.27,3.83,1.36,1.31,3.87,2.31,7.53,2.99v1.54h-32.31v-1.54c2.92-.39,5.02-.93,6.29-1.64,1.27-.7,2.29-1.9,3.07-3.6.54-1.11.91-2.8,1.13-5.05.22-2.25.33-5.52.33-9.78v-17.96c0-4.99-.12-8.5-.37-10.51-.24-2.01-.78-3.65-1.61-4.91-.83-1.36-1.83-2.34-3-2.95-1.17-.6-2.85-.98-5.04-1.13v-1.54l18.84-2.63c.84,4.37,1.26,8.12,1.26,11.25Z"/><path class="cls-3" d="m1720.16,620.5h28.36v1.61c-2.14.44-3.61.92-4.39,1.46-1.56.97-2.34,2.53-2.34,4.67,0,1.31.24,2.85.73,4.6.48,1.75,1.38,4.31,2.69,7.67l11.78,30,11.91-31.25c1.75-4.62,2.63-8.06,2.63-10.29,0-2.43-.76-4.21-2.27-5.33-.78-.58-2.22-1.09-4.31-1.53v-1.61h20.17v1.61c-2.73.68-4.92,1.9-6.58,3.65-2.1,2.19-4.51,6.79-7.24,13.8l-16.88,43.07h-3.95l-18.35-45.26c-2.83-6.96-4.85-11.17-6.07-12.63-.68-.78-1.44-1.35-2.27-1.72-.83-.36-2.05-.67-3.66-.91v-1.61Z"/><path class="cls-3" d="m1785.95,622.04l21.05-2.63v42.1l.07,5.54c0,3.3.19,5.72.58,7.25.39,1.53,1.14,2.81,2.27,3.82,1.36,1.31,3.87,2.31,7.53,2.99v1.54h-32.31v-1.54c2.92-.39,5.02-.93,6.29-1.64,1.27-.7,2.29-1.9,3.07-3.6.54-1.11.91-2.8,1.13-5.05.22-2.25.33-5.52.33-9.78v-17.96c0-4.99-.12-8.5-.37-10.51-.24-2.01-.78-3.65-1.61-4.91-.83-1.36-1.83-2.34-3-2.95-1.17-.6-2.85-.98-5.04-1.13v-1.54Zm15.24-28.87c-1.91,0-3.49-.61-4.74-1.83-1.25-1.22-1.87-2.75-1.87-4.6s.64-3.33,1.91-4.57c1.27-1.24,2.84-1.86,4.7-1.86s3.43.62,4.7,1.86c1.27,1.24,1.91,2.77,1.91,4.57s-.62,3.39-1.87,4.6c-1.25,1.22-2.83,1.83-4.74,1.83Z"/><path class="cls-3" d="m1876.07,668.82l1.46.51c-1.71,5.17-4.31,8.89-7.82,11.18-3.51,2.29-8.33,3.44-14.47,3.44-9.84,0-17.57-2.92-23.17-8.77-5.46-5.75-8.19-13.01-8.19-21.78,0-4.29.75-8.53,2.27-12.72,1.51-4.19,3.58-7.77,6.21-10.75,2.97-3.41,6.62-6.02,10.93-7.82,4.31-1.8,9.03-2.7,14.14-2.7,7.06,0,12.6,1.58,16.59,4.75,2.44,1.95,3.66,4.09,3.66,6.43,0,1.56-.51,2.86-1.54,3.91-1.02,1.05-2.27,1.57-3.73,1.57-3.17,0-5.51-2.31-7.02-6.94-.68-2.14-1.23-3.61-1.64-4.39-.41-.78-1.01-1.46-1.79-2.05-1.51-1.12-3.35-1.68-5.54-1.68-2.87,0-5.52.8-7.95,2.41-2.14,1.41-3.95,3.18-5.43,5.3s-2.78,4.79-3.9,8c-1.7,4.92-2.55,9.75-2.55,14.47,0,4.34.78,8.58,2.33,12.72,1.56,4.14,3.67,7.6,6.35,10.38,4.18,4.39,9.1,6.58,14.74,6.58,4.67,0,8.54-1.49,11.6-4.46,1.56-1.56,3.04-4.09,4.45-7.6Z"/><path class="cls-3" d="m1899.17,642.87c-.2,2.39-.29,4.12-.29,5.19,0,4.24.62,8.38,1.86,12.43,1.24,4.05,2.93,7.41,5.06,10.09,2.19,2.73,4.89,4.87,8.12,6.43,3.23,1.56,6.62,2.34,10.16,2.34,2.62,0,5.11-.44,7.47-1.32,2.36-.88,4.31-2.09,5.86-3.65,1.75-1.71,3.25-4.43,4.52-8.19l1.54.51c-1.27,5.7-3.98,10-8.15,12.9-4.17,2.9-9.71,4.35-16.63,4.35-5.99,0-11.14-.95-15.42-2.85-4.29-1.9-7.92-4.82-10.89-8.77-4.14-5.51-6.21-12.28-6.21-20.32,0-10.96,3.92-19.56,11.77-25.8,5.7-4.53,12.21-6.8,19.52-6.8,3.9,0,7.5.69,10.82,2.08,3.31,1.39,6.12,3.4,8.41,6.03,3.56,4.09,5.34,9.21,5.34,15.35h-42.83Zm31.87-2.85c-.34-4.87-1.24-8.62-2.69-11.26-1.31-2.39-3.06-4.28-5.24-5.66-2.18-1.39-4.51-2.08-6.98-2.08-4.17,0-7.82,1.8-10.95,5.41-3.13,3.61-4.98,8.14-5.57,13.6h31.43Z"/><path class="cls-3" d="m1956.18,682.63v-20.69h1.17c1.36,5.07,3.06,9.11,5.1,12.13,3.74,5.51,8.12,8.26,13.12,8.26,3.06,0,5.71-.92,7.95-2.78,2.43-2.05,3.65-4.95,3.65-8.7,0-3.07-.88-5.75-2.62-8.04-.97-1.22-2.2-2.34-3.68-3.36-1.48-1.02-3.97-2.46-7.47-4.31-6.13-3.26-10.21-5.99-12.25-8.19-2.92-3.12-4.38-6.72-4.38-10.82,0-4.39,1.46-8.16,4.39-11.33,3.36-3.61,7.82-5.41,13.38-5.41,2.49,0,4.8.44,6.94,1.32l2.49,1.1c.78.29,1.46.44,2.05.44.93,0,1.8-.73,2.63-2.19h1.46l.8,16.59h-1.54c-.53-2.34-1.11-4.21-1.71-5.63-.61-1.41-1.47-2.78-2.59-4.09-1.51-1.85-3.26-3.3-5.25-4.35-1.99-1.05-3.96-1.57-5.9-1.57-2.72,0-5.04.99-6.96,2.96s-2.88,4.4-2.88,7.27c0,2.39.86,4.54,2.59,6.47,1.73,1.93,4.39,3.69,7.99,5.3l7.73,3.51c4.62,2.1,8.07,4.7,10.36,7.82,2.28,3.12,3.43,6.8,3.43,11.04,0,5.12-1.66,9.36-4.97,12.72-3.8,3.9-8.67,5.85-14.62,5.85-3.22,0-6.48-.63-9.79-1.9-2.14-.83-3.43-1.3-3.87-1.43-.44-.12-1-.18-1.68-.18-1.71,0-3,.73-3.87,2.19h-1.17Z"/></g><g><path class="cls-1" d="m985.8,1003.02v10.4h14.68v6.7h-14.68v13.31h20.14v7.01h-28.03v-44.43h28.36v7.01h-20.47Z"/><path class="cls-1" d="m1033.66,1040.44l-8.34-10.59-7.49,10.59h-8.98l12.47-16.62-11.46-15.86h8.7l6.85,9.92,7.64-9.92h8.64l-12.47,15.86,13.62,16.62h-9.19Z"/><path class="cls-1" d="m1072.57,1010.54l-3.25,5.67c-1.78-1.68-4.17-2.52-7.16-2.52s-5.14.96-6.81,2.87-2.5,4.55-2.5,7.93c0,6.81,3.25,10.22,9.74,10.22,2.81,0,5.29-.93,7.43-2.79l2.79,5.98c-2.2,1.37-4.13,2.24-5.78,2.61-1.65.36-3.59.55-5.84.55-5.01,0-8.97-1.46-11.87-4.38-2.9-2.92-4.35-6.98-4.35-12.18s1.59-9.25,4.76-12.41c3.17-3.15,7.5-4.73,12.98-4.73,3.78,0,7.07,1.06,9.86,3.18Z"/><path class="cls-1" d="m1107.88,1026.52h-23.2c.14,2.59,1.03,4.6,2.67,6.04,1.64,1.44,3.84,2.15,6.61,2.15,3.46,0,6.09-.9,7.89-2.7l2.94,5.79c-2.67,2.16-6.65,3.25-11.95,3.25-4.95,0-8.87-1.45-11.75-4.35-2.88-2.9-4.32-6.95-4.32-12.15s1.58-9.26,4.75-12.44c3.16-3.17,6.96-4.76,11.39-4.76,4.71,0,8.49,1.41,11.34,4.22,2.85,2.81,4.28,6.39,4.28,10.74,0,.93-.21,2.34-.64,4.22Zm-22.93-5.7h15.95c-.53-4.75-3.15-7.13-7.89-7.13-4.33,0-7.02,2.38-8.07,7.13Z"/><path class="cls-1" d="m1115.89,995.86l7.58-1.82v36.52c0,4,1.19,6.39,3.58,7.16-1.17,2.22-3.17,3.34-6.01,3.34-3.44,0-5.16-2.39-5.16-7.16v-38.03Z"/><path class="cls-1" d="m1134.2,995.86l7.58-1.82v36.52c0,4,1.19,6.39,3.58,7.16-1.17,2.22-3.17,3.34-6.01,3.34-3.44,0-5.16-2.39-5.16-7.16v-38.03Z"/><path class="cls-1" d="m1180.22,1026.52h-23.2c.14,2.59,1.03,4.6,2.67,6.04s3.84,2.15,6.61,2.15c3.46,0,6.09-.9,7.89-2.7l2.94,5.79c-2.67,2.16-6.65,3.25-11.95,3.25-4.95,0-8.87-1.45-11.75-4.35-2.88-2.9-4.32-6.95-4.32-12.15s1.58-9.26,4.75-12.44c3.16-3.17,6.96-4.76,11.39-4.76,4.71,0,8.49,1.41,11.34,4.22,2.85,2.81,4.28,6.39,4.28,10.74,0,.93-.21,2.34-.64,4.22Zm-22.93-5.7h15.95c-.53-4.75-3.15-7.13-7.89-7.13-4.33,0-7.02,2.38-8.07,7.13Z"/><path class="cls-1" d="m1207.82,1040.44v-18.77c0-2.77-.53-4.79-1.59-6.07s-2.8-1.91-5.2-1.91c-1.11,0-2.3.31-3.56.94-1.26.63-2.25,1.41-2.96,2.34v23.48h-7.58v-32.48h5.46l1.4,3.03c2.06-2.43,5.11-3.64,9.13-3.64s6.91,1.16,9.14,3.47c2.23,2.32,3.35,5.55,3.35,9.69v19.93h-7.58Z"/><path class="cls-1" d="m1249.07,1010.54l-3.25,5.67c-1.78-1.68-4.17-2.52-7.16-2.52s-5.14.96-6.81,2.87c-1.67,1.91-2.5,4.55-2.5,7.93,0,6.81,3.25,10.22,9.74,10.22,2.81,0,5.29-.93,7.43-2.79l2.79,5.98c-2.2,1.37-4.13,2.24-5.78,2.61-1.65.36-3.59.55-5.84.55-5.01,0-8.97-1.46-11.87-4.38-2.9-2.92-4.35-6.98-4.35-12.18s1.59-9.25,4.76-12.41c3.17-3.15,7.5-4.73,12.98-4.73,3.78,0,7.07,1.06,9.86,3.18Z"/><path class="cls-1" d="m1284.37,1026.52h-23.2c.14,2.59,1.03,4.6,2.67,6.04,1.64,1.44,3.84,2.15,6.61,2.15,3.46,0,6.09-.9,7.89-2.7l2.94,5.79c-2.67,2.16-6.65,3.25-11.95,3.25-4.95,0-8.87-1.45-11.75-4.35-2.88-2.9-4.32-6.95-4.32-12.15s1.58-9.26,4.75-12.44c3.16-3.17,6.96-4.76,11.39-4.76,4.71,0,8.49,1.41,11.34,4.22,2.85,2.81,4.28,6.39,4.28,10.74,0,.93-.21,2.34-.64,4.22Zm-22.93-5.7h15.95c-.53-4.75-3.15-7.13-7.89-7.13-4.33,0-7.02,2.38-8.07,7.13Z"/><path class="cls-1" d="m1327.86,1037.2c-.69,1.13-1.89,2.06-3.59,2.78-1.71.72-3.49,1.08-5.35,1.08-3.5,0-6.25-.87-8.25-2.62s-3-4.23-3-7.45c0-3.76,1.41-6.7,4.23-8.83,2.82-2.12,6.83-3.18,12.03-3.18.89,0,1.94.15,3.15.45,0-3.82-2.42-5.73-7.25-5.73-2.85,0-5.24.48-7.16,1.43l-1.64-5.88c2.61-1.25,5.71-1.88,9.31-1.88,4.95,0,8.58,1.13,10.89,3.38,2.31,2.25,3.46,6.53,3.46,12.81v6.95c0,4.33.87,7.05,2.61,8.16-.63,1.09-1.32,1.76-2.09,2.02-.77.25-1.65.38-2.64.38-1.09,0-2.07-.4-2.94-1.21-.87-.81-1.46-1.69-1.76-2.64Zm-.73-12.04c-1.29-.26-2.26-.39-2.91-.39-5.99,0-8.98,1.96-8.98,5.88,0,2.91,1.69,4.37,5.07,4.37,4.55,0,6.82-2.27,6.82-6.82v-3.03Z"/><path class="cls-1" d="m1340.87,1038.35l2.7-6.04c2.26,1.8,4.82,2.7,7.67,2.7s4.43-1.05,4.43-3.15c0-1.23-.45-2.24-1.33-3.03-.89-.79-2.62-1.72-5.19-2.79-5.6-2.33-8.4-5.58-8.4-9.77,0-2.81,1.07-5,3.21-6.57,2.14-1.57,4.88-2.35,8.22-2.35s6.55.76,9.52,2.27l-2.18,5.88c-1.66-1.42-3.96-2.12-6.92-2.12-2.65,0-3.97,1.05-3.97,3.15,0,.83.43,1.58,1.3,2.24.87.67,2.73,1.56,5.58,2.68s4.9,2.48,6.16,4.08c1.25,1.6,1.88,3.53,1.88,5.79,0,3.01-1.12,5.38-3.35,7.11-2.23,1.73-5.27,2.59-9.11,2.59-2.16,0-3.9-.18-5.2-.53-1.3-.35-2.98-1.08-5.02-2.17Z"/><path class="cls-1" d="m1386.67,1037.99l2.91-7.07c3.11,2.18,6.18,3.28,9.19,3.28,4.63,0,6.95-1.62,6.95-4.85,0-1.52-.55-2.96-1.64-4.34-1.09-1.37-3.34-2.92-6.75-4.63-3.41-1.71-5.7-3.11-6.88-4.22s-2.09-2.41-2.73-3.93-.96-3.19-.96-5.03c0-3.44,1.26-6.29,3.78-8.55s5.75-3.4,9.69-3.4c5.14,0,8.91.96,11.31,2.88l-2.4,6.79c-2.77-1.98-5.69-2.97-8.77-2.97-1.82,0-3.23.48-4.23,1.44s-1.5,2.21-1.5,3.75c0,2.55,2.82,5.2,8.46,7.95,2.97,1.46,5.12,2.8,6.43,4.02,1.31,1.22,2.31,2.65,3,4.28.69,1.63,1.03,3.44,1.03,5.44,0,3.6-1.42,6.56-4.26,8.89-2.84,2.33-6.65,3.49-11.42,3.49-4.15,0-7.89-1.07-11.22-3.21Z"/><path class="cls-1" d="m1421.25,1014.06h-3.76v-6.1h3.76v-6.61l7.58-2.79v9.4h8.92v6.1h-8.92v14.22c0,2.33.36,3.97,1.09,4.93s2,1.44,3.82,1.44,3.52-.5,5.1-1.49v6.98c-1.76.61-4.27.91-7.52.91s-5.72-.91-7.46-2.74c-1.74-1.83-2.61-4.43-2.61-7.81v-16.44Z"/><path class="cls-1" d="m1462.8,1037.2c-.69,1.13-1.89,2.06-3.59,2.78-1.71.72-3.49,1.08-5.35,1.08-3.5,0-6.25-.87-8.25-2.62s-3-4.23-3-7.45c0-3.76,1.41-6.7,4.23-8.83,2.82-2.12,6.83-3.18,12.03-3.18.89,0,1.94.15,3.15.45,0-3.82-2.42-5.73-7.25-5.73-2.85,0-5.24.48-7.16,1.43l-1.64-5.88c2.61-1.25,5.71-1.88,9.31-1.88,4.95,0,8.58,1.13,10.89,3.38s3.46,6.53,3.46,12.81v6.95c0,4.33.87,7.05,2.61,8.16-.63,1.09-1.32,1.76-2.09,2.02-.77.25-1.65.38-2.64.38-1.09,0-2.07-.4-2.94-1.21-.87-.81-1.46-1.69-1.76-2.64Zm-.73-12.04c-1.29-.26-2.26-.39-2.91-.39-5.99,0-8.98,1.96-8.98,5.88,0,2.91,1.69,4.37,5.07,4.37,4.55,0,6.82-2.27,6.82-6.82v-3.03Z"/><path class="cls-1" d="m1498.71,1040.44v-18.77c0-2.77-.53-4.79-1.59-6.07-1.06-1.27-2.8-1.91-5.2-1.91-1.11,0-2.3.31-3.56.94s-2.25,1.41-2.96,2.34v23.48h-7.58v-32.48h5.46l1.4,3.03c2.06-2.43,5.11-3.64,9.13-3.64s6.91,1.16,9.14,3.47,3.35,5.55,3.35,9.69v19.93h-7.58Z"/><path class="cls-1" d="m1535.38,1040.44v-1.97c-.63.69-1.69,1.29-3.18,1.8s-3.04.77-4.64.77c-4.53,0-8.09-1.44-10.69-4.31-2.6-2.87-3.9-6.87-3.9-12.01s1.49-9.32,4.47-12.54c2.98-3.23,6.72-4.84,11.21-4.84,2.47,0,4.71.51,6.73,1.52v-13.01l7.58-1.82v46.41h-7.58Zm0-24.72c-1.62-1.29-3.31-1.94-5.07-1.94-3.03,0-5.37.93-7.01,2.78-1.64,1.85-2.46,4.5-2.46,7.96,0,6.75,3.26,10.13,9.77,10.13.73,0,1.62-.22,2.68-.65s1.75-.87,2.08-1.32v-16.95Z"/><path class="cls-1" d="m1568.62,1037.2c-.69,1.13-1.89,2.06-3.59,2.78-1.71.72-3.49,1.08-5.35,1.08-3.5,0-6.25-.87-8.25-2.62-2-1.75-3-4.23-3-7.45,0-3.76,1.41-6.7,4.23-8.83,2.82-2.12,6.83-3.18,12.03-3.18.89,0,1.94.15,3.15.45,0-3.82-2.42-5.73-7.25-5.73-2.85,0-5.24.48-7.16,1.43l-1.64-5.88c2.61-1.25,5.71-1.88,9.31-1.88,4.95,0,8.58,1.13,10.89,3.38s3.46,6.53,3.46,12.81v6.95c0,4.33.87,7.05,2.61,8.16-.63,1.09-1.32,1.76-2.09,2.02-.77.25-1.65.38-2.64.38-1.09,0-2.07-.4-2.94-1.21-.87-.81-1.46-1.69-1.76-2.64Zm-.73-12.04c-1.29-.26-2.26-.39-2.91-.39-5.99,0-8.98,1.96-8.98,5.88,0,2.91,1.69,4.37,5.07,4.37,4.55,0,6.82-2.27,6.82-6.82v-3.03Z"/><path class="cls-1" d="m1602.41,1015.03c-1.35-.89-2.84-1.33-4.46-1.33-1.76,0-3.32.8-4.69,2.4-1.36,1.6-2.05,3.55-2.05,5.85v18.5h-7.58v-32.48h7.58v2.97c2.12-2.39,4.94-3.58,8.46-3.58,2.59,0,4.57.39,5.94,1.18l-3.21,6.49Z"/><path class="cls-1" d="m1631.07,1040.44v-1.97c-.63.69-1.69,1.29-3.18,1.8s-3.04.77-4.64.77c-4.53,0-8.09-1.44-10.69-4.31s-3.9-6.87-3.9-12.01,1.49-9.32,4.47-12.54c2.98-3.23,6.72-4.84,11.21-4.84,2.47,0,4.71.51,6.73,1.52v-13.01l7.58-1.82v46.41h-7.58Zm0-24.72c-1.62-1.29-3.31-1.94-5.07-1.94-3.03,0-5.37.93-7.01,2.78-1.64,1.85-2.46,4.5-2.46,7.96,0,6.75,3.26,10.13,9.77,10.13.73,0,1.62-.22,2.68-.65s1.75-.87,2.08-1.32v-16.95Z"/></g></svg>